<svg width="95" height="24" viewBox="0 0 95 24" fill="none" xmlns="http://www.w3.org/2000/svg">
<path fill-rule="evenodd" clip-rule="evenodd" d="M13.4858 3.65807C13.4415 3.70236 13.3934 3.78613 13.3789 3.84423C13.3644 3.90232 13.3589 4.8765 13.3667 6.00907C13.3779 7.63145 13.3949 8.09553 13.447 8.19664C13.4834 8.26719 13.6938 8.46696 13.9146 8.64056C14.2138 8.87575 14.3243 8.99398 14.3486 9.10464C14.391 9.29758 14.3409 9.44918 14.2349 9.44918C14.1027 9.44918 14.087 9.43857 10.4986 6.92991C9.42622 6.18025 8.86365 5.78929 8.59043 5.60392C8.36289 5.44955 8.21921 5.44204 8.09607 5.57804C8.00945 5.67369 8.00291 5.78876 7.9894 7.45465C7.97201 9.59188 7.94653 9.47375 8.53293 9.97063C8.82848 10.221 8.94833 10.356 8.97235 10.4655C9.01387 10.6543 8.89504 10.8543 8.74143 10.8542C8.68208 10.8542 8.30655 10.6219 7.9069 10.3381C6.53224 9.36202 3.5469 7.28284 3.43805 7.22571C3.32459 7.16616 3.15451 7.2182 3.07545 7.33667C3.05588 7.36598 3.03955 9.28251 3.03912 11.5956C3.03849 15.1283 3.04934 15.8222 3.10694 15.9321C3.21564 16.1397 3.4426 16.329 4.32213 16.9461C5.3341 17.6561 6.91372 18.7712 7.97957 19.5281C8.99798 20.2513 9.23327 20.3994 9.36372 20.3994C9.60952 20.3994 9.60066 20.5535 9.62662 15.8254C9.65181 11.2306 9.65365 11.1935 9.85024 11.1935C9.96955 11.1935 11.1504 11.999 11.3538 12.2192C11.551 12.4326 11.5638 12.6126 11.564 15.1806C11.5644 18.0503 11.5323 17.861 12.0847 18.2508C12.2648 18.3779 12.8979 18.8276 13.4916 19.2501C14.5821 20.0262 14.7694 20.1202 14.9212 19.9684C14.9656 19.924 14.9854 18.7247 15.0038 14.9536C15.0291 9.77793 15.0266 9.8368 15.2236 9.8368C15.3035 9.8368 16.3779 10.5454 16.6189 10.7571C16.957 11.054 16.9415 10.9062 16.9415 13.8345C16.9415 15.5829 16.9594 16.5514 16.9943 16.69C17.0277 16.8226 17.1123 16.9626 17.2244 17.0708C17.4898 17.3269 20.4883 19.4283 20.59 19.4294C20.7494 19.4311 20.8604 19.335 20.9114 19.1512C20.9447 19.0313 20.9614 17.2677 20.9609 13.931C20.9602 9.14098 20.9557 8.88229 20.8709 8.69556C20.7707 8.47491 20.6953 8.41589 19.0488 7.26956C18.4626 6.86149 17.7759 6.38157 17.5228 6.20312C17.2697 6.02463 16.5939 5.55183 16.0211 5.15234C15.4482 4.7529 14.726 4.24803 14.4161 4.03043C13.8086 3.60385 13.6168 3.52706 13.4858 3.65807Z" fill="#C2C2C2"/>
<path d="M27.3566 6.08782H30.0638L33.6892 14.9367H33.8323L37.4577 6.08782H40.1648V18.2997H38.0421V9.91H37.9288L34.5538 18.264H32.9677L29.5927 9.89212H29.4794V18.2997H27.3566V6.08782ZM44.2744 18.4847C43.694 18.4847 43.1713 18.3813 42.7062 18.1745C42.245 17.9639 41.8794 17.6537 41.609 17.2443C41.3428 16.8349 41.2095 16.33 41.2095 15.7298C41.2095 15.213 41.305 14.7856 41.4958 14.4477C41.6866 14.1098 41.947 13.8395 42.277 13.6368C42.6069 13.434 42.9785 13.281 43.3919 13.1777C43.8094 13.0703 44.2407 12.9928 44.6859 12.9451C45.2225 12.8894 45.6578 12.8398 45.9918 12.796C46.3257 12.7483 46.5681 12.6768 46.7192 12.5814C46.8743 12.482 46.9518 12.3289 46.9518 12.1222V12.0864C46.9518 11.6372 46.8187 11.2894 46.5523 11.043C46.2859 10.7965 45.9023 10.6733 45.4015 10.6733C44.8728 10.6733 44.4534 10.7885 44.1433 11.0191C43.8372 11.2497 43.6305 11.522 43.5231 11.836L41.5077 11.5498C41.6667 10.9933 41.929 10.5282 42.2948 10.1545C42.6605 9.77683 43.1078 9.49459 43.6365 9.30775C44.1651 9.11694 44.7495 9.02154 45.3895 9.02154C45.8307 9.02154 46.2701 9.07321 46.7072 9.17658C47.1445 9.27993 47.5441 9.45086 47.9058 9.68937C48.2675 9.92391 48.5578 10.2439 48.7764 10.6494C48.999 11.0549 49.1103 11.5617 49.1103 12.1699V18.2997H47.0353V17.0416H46.9637C46.8326 17.296 46.6476 17.5345 46.4092 17.7571C46.1746 17.9758 45.8785 18.1527 45.5207 18.2878C45.1669 18.419 44.7515 18.4847 44.2744 18.4847ZM44.835 16.8985C45.2682 16.8985 45.6439 16.813 45.9619 16.6421C46.28 16.4672 46.5245 16.2366 46.6954 15.9504C46.8702 15.6642 46.9578 15.3521 46.9578 15.0142V13.9349C46.8902 13.9906 46.7749 14.0423 46.6119 14.09C46.4529 14.1377 46.274 14.1794 46.0753 14.2152C45.8764 14.251 45.6797 14.2828 45.485 14.3106C45.2902 14.3384 45.1212 14.3623 44.9781 14.3822C44.6561 14.4259 44.3678 14.4974 44.1135 14.5968C43.8591 14.6962 43.6583 14.8353 43.5112 15.0142C43.3641 15.1891 43.2906 15.4157 43.2906 15.694C43.2906 16.0915 43.4357 16.3916 43.7259 16.5944C44.0161 16.7971 44.3857 16.8985 44.835 16.8985ZM52.5998 12.9332V18.2997H50.4413V9.1408H52.5044V10.6971H52.6117C52.8224 10.1843 53.1583 9.77683 53.6194 9.47472C54.0845 9.1726 54.6589 9.02154 55.3427 9.02154C55.9748 9.02154 56.5253 9.1567 56.9944 9.42701C57.4675 9.69733 57.8332 10.0889 58.0916 10.6017C58.354 11.1145 58.4832 11.7366 58.4792 12.4681V18.2997H56.3206V12.802C56.3206 12.1898 56.1616 11.7108 55.8436 11.3649C55.5296 11.0191 55.0943 10.8462 54.5377 10.8462C54.1601 10.8462 53.8242 10.9297 53.53 11.0966C53.2398 11.2596 53.0112 11.4961 52.8443 11.8062C52.6813 12.1163 52.5998 12.4919 52.5998 12.9332ZM62.4696 18.4847C61.8892 18.4847 61.3664 18.3813 60.9013 18.1745C60.4402 17.9639 60.0744 17.6537 59.8042 17.2443C59.5378 16.8349 59.4047 16.33 59.4047 15.7298C59.4047 15.213 59.5 14.7856 59.6908 14.4477C59.8817 14.1098 60.142 13.8395 60.472 13.6368C60.8019 13.434 61.1736 13.281 61.5871 13.1777C62.0044 13.0703 62.4357 12.9928 62.881 12.9451C63.4176 12.8894 63.8529 12.8398 64.1869 12.796C64.5208 12.7483 64.7633 12.6768 64.9143 12.5814C65.0694 12.482 65.1468 12.3289 65.1468 12.1222V12.0864C65.1468 11.6372 65.0137 11.2894 64.7473 11.043C64.4809 10.7965 64.0974 10.6733 63.5965 10.6733C63.0678 10.6733 62.6484 10.7885 62.3384 11.0191C62.0323 11.2497 61.8255 11.522 61.7182 11.836L59.7027 11.5498C59.8617 10.9933 60.1242 10.5282 60.4899 10.1545C60.8556 9.77683 61.3028 9.49459 61.8315 9.30775C62.3602 9.11694 62.9445 9.02154 63.5845 9.02154C64.0258 9.02154 64.4651 9.07321 64.9024 9.17658C65.3396 9.27993 65.7391 9.45086 66.101 9.68937C66.4627 9.92391 66.7528 10.2439 66.9715 10.6494C67.1941 11.0549 67.3054 11.5617 67.3054 12.1699V18.2997H65.2303V17.0416H65.1587C65.0276 17.296 64.8427 17.5345 64.6042 17.7571C64.3696 17.9758 64.0735 18.1527 63.7157 18.2878C63.3619 18.419 62.9466 18.4847 62.4696 18.4847ZM63.03 16.8985C63.4634 16.8985 63.839 16.813 64.157 16.6421C64.4751 16.4672 64.7195 16.2366 64.8904 15.9504C65.0654 15.6642 65.1528 15.3521 65.1528 15.0142V13.9349C65.0852 13.9906 64.9699 14.0423 64.8069 14.09C64.6479 14.1377 64.4691 14.1794 64.2703 14.2152C64.0716 14.251 63.8748 14.2828 63.68 14.3106C63.4852 14.3384 63.3162 14.3623 63.1731 14.3822C62.8511 14.4259 62.5629 14.4974 62.3085 14.5968C62.0541 14.6962 61.8533 14.8353 61.7063 15.0142C61.5592 15.1891 61.4856 15.4157 61.4856 15.694C61.4856 16.0915 61.6307 16.3916 61.921 16.5944C62.2111 16.7971 62.5809 16.8985 63.03 16.8985ZM73.2754 9.1408V10.8104H67.8612V9.1408H73.2754ZM69.2147 18.2997V8.27619C69.2147 7.66003 69.3419 7.14722 69.5963 6.73777C69.8547 6.32832 70.2006 6.02222 70.6339 5.81949C71.0671 5.61675 71.5482 5.51538 72.0769 5.51538C72.4505 5.51538 72.7825 5.5452 73.0726 5.60482C73.3629 5.66445 73.5776 5.71812 73.7167 5.76582L73.2873 7.43542C73.1959 7.40759 73.0807 7.37977 72.9415 7.35194C72.8024 7.32014 72.6473 7.30424 72.4764 7.30424C72.0749 7.30424 71.7906 7.40163 71.6236 7.59642C71.4606 7.78723 71.3792 8.06152 71.3792 8.4193V18.2997H69.2147ZM77.7771 18.4787C76.8826 18.4787 76.1074 18.2818 75.4516 17.8883C74.7957 17.4948 74.2868 16.9442 73.925 16.2366C73.5672 15.529 73.3884 14.7022 73.3884 13.756C73.3884 12.8099 73.5672 11.9811 73.925 11.2695C74.2868 10.558 74.7957 10.0054 75.4516 9.61186C76.1074 9.21832 76.8826 9.02154 77.7771 9.02154C78.6715 9.02154 79.4466 9.21832 80.1026 9.61186C80.7585 10.0054 81.2654 10.558 81.623 11.2695C81.9849 11.9811 82.1658 12.8099 82.1658 13.756C82.1658 14.7022 81.9849 15.529 81.623 16.2366C81.2654 16.9442 80.7585 17.4948 80.1026 17.8883C79.4466 18.2818 78.6715 18.4787 77.7771 18.4787ZM77.789 16.7494C78.274 16.7494 78.6794 16.6162 79.0054 16.3499C79.3314 16.0796 79.5739 15.7178 79.7329 15.2646C79.8958 14.8115 79.9774 14.3066 79.9774 13.7501C79.9774 13.1896 79.8958 12.6827 79.7329 12.2296C79.5739 11.7724 79.3314 11.4087 79.0054 11.1384C78.6794 10.868 78.274 10.7329 77.789 10.7329C77.2921 10.7329 76.8786 10.868 76.5487 11.1384C76.2227 11.4087 75.9783 11.7724 75.8153 12.2296C75.6562 12.6827 75.5768 13.1896 75.5768 13.7501C75.5768 14.3066 75.6562 14.8115 75.8153 15.2646C75.9783 15.7178 76.2227 16.0796 76.5487 16.3499C76.8786 16.6162 77.2921 16.7494 77.789 16.7494ZM85.3168 6.08782V18.2997H83.1583V6.08782H85.3168ZM90.0957 18.4608C89.3762 18.4608 88.7322 18.2758 88.1638 17.9062C87.5953 17.5365 87.1461 16.9998 86.8161 16.2962C86.4862 15.5926 86.3213 14.7379 86.3213 13.7322C86.3213 12.7145 86.4882 11.8559 86.8221 11.1562C87.16 10.4526 87.6152 9.92194 88.1876 9.56416C88.76 9.20241 89.3981 9.02154 90.1017 9.02154C90.6384 9.02154 91.0796 9.11297 91.4254 9.29583C91.7713 9.47472 92.0456 9.69137 92.2483 9.94578C92.4511 10.1962 92.6081 10.4328 92.7194 10.6554H92.8089V6.08782H94.9733V18.2997H92.8506V16.8567H92.7194C92.6081 17.0793 92.447 17.3159 92.2364 17.5663C92.0257 17.8128 91.7474 18.0235 91.4016 18.1984C91.0557 18.3732 90.6205 18.4608 90.0957 18.4608ZM90.698 16.6898C91.1552 16.6898 91.5447 16.5665 91.8666 16.3201C92.1887 16.0696 92.4331 15.7218 92.6001 15.2766C92.7671 14.8313 92.8506 14.3126 92.8506 13.7203C92.8506 13.128 92.7671 12.6132 92.6001 12.1759C92.4372 11.7386 92.1947 11.3987 91.8726 11.1562C91.5547 10.9138 91.1631 10.7925 90.698 10.7925C90.217 10.7925 89.8155 10.9177 89.4934 11.1682C89.1715 11.4186 88.929 11.7645 88.766 12.2057C88.603 12.647 88.5216 13.1518 88.5216 13.7203C88.5216 14.2927 88.603 14.8035 88.766 15.2527C88.9329 15.6979 89.1775 16.0498 89.4994 16.3081C89.8254 16.5626 90.2249 16.6898 90.698 16.6898Z" fill="#C2C2C2"/>
</svg>
